<svg xmlns="http://www.w3.org/2000/svg" viewBox="0 0 1451.34 1451.34"><title>logo</title><path d="M10.48,313.58V978.84c0,76.6,67,134,67,134s277.55,172.3,425.94,263.26,225,33.48,225,33.48,497.77-167.5,605.31-206.7,107.85-142.69,107.85-142.69V385.36c-4.81-76.56-94.83-115.1-94.83-115.1s-278.51-143.32-394-206.47S738,31.22,738,31.22,197.16,189.16,96.64,217.84,10.48,313.58,10.48,313.58ZM537,551.44S262.32,400.76,153.52,329.28c-81.29-53.43,9.31-78.94,9.31-78.94S606.51,123.89,721.42,90.42s170.63,2.77,170.63,2.77l426,208.48c97.51,51.08,4.75,73.88,4.75,73.88s-47.23,14.74-115.07,36.07l1.81,462.66-140.8-129-204.12,276.2,3.94-501.57c-49.3,16.14-91,30.12-117,39.47C631.89,602.43,537,551.44,537,551.44ZM126.12,374.93,530.9,618.4S604,648.86,604,737.12s3,544.79,3,544.79,3,97.43-82.15,51.75-395.71-240.43-395.71-240.43-70-33.42-70-109.57v-557S50,329.28,126.12,374.93Z" fill="#000000"/></svg>